<svg xmlns="http://www.w3.org/2000/svg" viewBox="0 0 120.79 44.97"><title>Asset 1</title><g id="Layer_2" data-name="Layer 2"><g id="Layer_1-2" data-name="Layer 1"><path d="M14.06,22c-.75,2.75-2.56,5-6.06,5-3.91,0-6.69-2.91-6.69-8.13,0-4.28,2.28-8.25,6.88-8.25a5.59,5.59,0,0,1,5.87,5H12.47a4.23,4.23,0,0,0-4.31-3.53C4.84,12.06,3,14.88,3,18.78,3,22.5,4.72,25.5,8,25.5c2.28,0,3.66-1.16,4.47-3.5Z" transform="translate(-1.31 -3.56)"/><path d="M30.5,18.75c0,4.34-2.41,8.22-7.06,8.22-4.22,0-6.85-3.47-6.85-8.19,0-4.47,2.47-8.19,7-8.19C27.75,10.59,30.5,13.84,30.5,18.75Zm-12.25,0c0,3.72,2,6.72,5.31,6.72s5.28-2.78,5.28-6.72c0-3.69-1.87-6.72-5.34-6.72S18.25,15,18.25,18.78Z" transform="translate(-1.31 -3.56)"/><path d="M34.38,26.59v-23h1.56v23Z" transform="translate(-1.31 -3.56)"/><path d="M38.94,11h2.9V6.09h1.57V11h3.72v1.47H43.41V22.59c0,1.75.37,2.75,1.87,2.75a6.17,6.17,0,0,0,1.63-.18v1.37a5.46,5.46,0,0,1-1.94.28c-2,0-3.13-1-3.13-3.5V12.44h-2.9Z" transform="translate(-1.31 -3.56)"/><path d="M62.78,18.75c0,4.34-2.4,8.22-7.06,8.22-4.22,0-6.84-3.47-6.84-8.19,0-4.47,2.46-8.19,7-8.19C60,10.59,62.78,13.84,62.78,18.75Zm-12.25,0c0,3.72,2,6.72,5.31,6.72s5.29-2.78,5.29-6.72c0-3.69-1.88-6.72-5.35-6.72S50.53,15,50.53,18.78Z" transform="translate(-1.31 -3.56)"/><path d="M66.66,14.91c0-1.38,0-2.69,0-3.94h1.53c.06.5.09,2.53.06,3a5.1,5.1,0,0,1,5.19-3.35c2.78,0,5.25,1.57,5.25,5.88V26.59H77.09V16.72c0-2.78-1.15-4.59-3.87-4.59-3.72,0-5,3.09-5,6.5v8H66.66Z" transform="translate(-1.31 -3.56)"/><path d="M6.92,42.15,5.7,41.88a9.26,9.26,0,0,1-2.3-.83,8.81,8.81,0,0,1-2-1.37l1.85-2.27a10.09,10.09,0,0,0,2.55,1.46,6.78,6.78,0,0,0,2.5.49,5.38,5.38,0,0,0,2.77-.57A1.9,1.9,0,0,0,12,37.07a1.34,1.34,0,0,0-.5-1.14,2.76,2.76,0,0,0-1.25-.51c-.5-.09-1.2-.17-2.11-.24H7.9l-.26,0H7.4a12.11,12.11,0,0,1-2.61-.45A3.54,3.54,0,0,1,3,33.46a4.13,4.13,0,0,1-.71-2.58A5.26,5.26,0,0,1,3,28.08a4.16,4.16,0,0,1,2-1.67,9.07,9.07,0,0,1,3.4-.55,12,12,0,0,1,2.36.22,11.21,11.21,0,0,1,2.15.68,10.51,10.51,0,0,1,2,1.14L13,30.17A10.92,10.92,0,0,0,10.69,29a7.29,7.29,0,0,0-2.26-.38,4.28,4.28,0,0,0-2.38.54,1.83,1.83,0,0,0-.79,1.63,1.12,1.12,0,0,0,.45,1,2.66,2.66,0,0,0,1.14.42,18.8,18.8,0,0,0,2,.19H9l.21,0h.18a13,13,0,0,1,2.83.45,3.78,3.78,0,0,1,2,1.32,4.5,4.5,0,0,1,.8,2.87,5.07,5.07,0,0,1-.74,2.83A4.44,4.44,0,0,1,12,41.59a10.59,10.59,0,0,1-3.7.56Z" transform="translate(-1.31 -3.56)"/><path d="M17.1,26.08h3.25l2.81,11.31,3.95-11.31h2.17l3.95,11.31L36,26.08h3.25L34.41,41.92H32.06L28.2,31,24.33,41.92H22Z" transform="translate(-1.31 -3.56)"/><path d="M46.63,42.15l-1.56-.82a5.54,5.54,0,0,1-2.37-2.42,8.42,8.42,0,0,1-.82-3.85V33.27a9.25,9.25,0,0,1,.79-4A5.57,5.57,0,0,1,45,26.73a7.06,7.06,0,0,1,3.6-.87,5.75,5.75,0,0,1,3.39,1,6.06,6.06,0,0,1,2.14,2.87,12.12,12.12,0,0,1,.74,4.5v1H44.14V32.75h7.72a5.28,5.28,0,0,0-1-3,2.79,2.79,0,0,0-2.31-1.08,3.39,3.39,0,0,0-2.74,1.16,5,5,0,0,0-1,3.28v2a4.13,4.13,0,0,0,1,3,4,4,0,0,0,2.95,1,4.77,4.77,0,0,0,1.87-.38,5.36,5.36,0,0,0,1.67-1.07l2,2a8.75,8.75,0,0,1-2.64,1.75,7.56,7.56,0,0,1-2.94.61Z" transform="translate(-1.31 -3.56)"/><path d="M63.38,42.15l-1.55-.82a5.56,5.56,0,0,1-2.38-2.42,8.42,8.42,0,0,1-.81-3.85V33.27a9.4,9.4,0,0,1,.78-4,5.64,5.64,0,0,1,2.29-2.53,7,7,0,0,1,3.6-.87,5.7,5.7,0,0,1,3.38,1,6.14,6.14,0,0,1,2.15,2.87,12.33,12.33,0,0,1,.74,4.5v1H60.9V32.75h7.72a5.36,5.36,0,0,0-1-3,2.82,2.82,0,0,0-2.31-1.08,3.37,3.37,0,0,0-2.74,1.16,5,5,0,0,0-1,3.28v2a4.09,4.09,0,0,0,1,3,3.94,3.94,0,0,0,2.94,1,4.82,4.82,0,0,0,1.88-.38,5.31,5.31,0,0,0,1.66-1.07l2,2a9,9,0,0,1-2.64,1.75,7.57,7.57,0,0,1-3,.61Z" transform="translate(-1.31 -3.56)"/><path d="M75.85,26.08H79V41.92H75.85Zm9.61,6.25a3.63,3.63,0,0,0-.87-2.6,3.2,3.2,0,0,0-2.44-.91,3.27,3.27,0,0,0-2.36.81A3,3,0,0,0,79,31.9l-.32-3a5.67,5.67,0,0,1,1.92-2.22,4.72,4.72,0,0,1,2.61-.77,5,5,0,0,1,4,1.68,7.26,7.26,0,0,1,1.41,4.77v9.61H85.46Z" transform="translate(-1.31 -3.56)"/><path d="M97.59,42.15,96,41.33a5.49,5.49,0,0,1-2.37-2.42,8.29,8.29,0,0,1-.82-3.85V33.27a9.4,9.4,0,0,1,.78-4,5.64,5.64,0,0,1,2.29-2.53,7,7,0,0,1,3.6-.87,5.75,5.75,0,0,1,3.39,1,6.13,6.13,0,0,1,2.14,2.87,12.33,12.33,0,0,1,.74,4.5v1H95.11V32.75h7.72a5.36,5.36,0,0,0-1-3,2.82,2.82,0,0,0-2.31-1.08,3.37,3.37,0,0,0-2.74,1.16,5,5,0,0,0-1,3.28v2a4.13,4.13,0,0,0,1,3,3.94,3.94,0,0,0,2.94,1,4.82,4.82,0,0,0,1.88-.38,5.31,5.31,0,0,0,1.66-1.07l2,2a9,9,0,0,1-2.64,1.75,7.57,7.57,0,0,1-2.95.61Z" transform="translate(-1.31 -3.56)"/><path d="M108.08,26.08h3.17l4.87,13.77-1.72,3.37Zm14,0-6.74,19.55a4.84,4.84,0,0,1-1,1.72,3.49,3.49,0,0,1-1.47.91,7.29,7.29,0,0,1-2.14.27h-.62v-3h.62a2.49,2.49,0,0,0,1.39-.35,2.84,2.84,0,0,0,.89-1.21l5.86-17.9Z" transform="translate(-1.31 -3.56)"/></g></g></svg>